<svg width="164" height="23" viewBox="0 0 164 23" fill="none" xmlns="http://www.w3.org/2000/svg">
<path d="M30.4969 16.4243C26.7776 18.9459 22.5857 20.6816 18.1779 21.5285V7.59467L20.4937 7.12367C23.4864 6.51499 26.3076 5.25267 28.7557 3.42695L31.3865 1.46497V15.8212L30.4969 16.4243Z" fill="#726AE9" stroke="#DFDFDF" stroke-width="1.22302"/>
<path d="M28.6865 16.358C25.583 18.7453 21.9949 20.4188 18.1779 21.2636V7.33539L20.0048 6.91379C22.767 6.27637 25.337 4.98855 27.501 3.15747L29.6743 1.31848V15.5982L28.6865 16.358Z" fill="#726AE9" stroke="#FEFEFE" stroke-width="1.22302"/>
<path d="M26.105 16.707C23.8671 18.8383 21.1449 20.3873 18.1779 21.2238V7.31018L19.2945 6.99115C21.7411 6.29215 23.9569 4.9534 25.7138 3.11288L27.2283 1.52627V15.6372L26.105 16.707Z" fill="#726AE9" stroke="white" stroke-width="1.22302"/>
<path d="M10.8155 13.763H13.9619C15.3937 13.763 16.083 13.0824 16.083 11.6241V8.52189C16.083 7.06358 15.3937 6.38304 13.9619 6.38304H10.8155C9.38366 6.38304 8.69427 7.06358 8.69427 8.52189V11.6241C8.69427 13.0824 9.38366 13.763 10.8155 13.763ZM2.25119 13.763H5.39761C6.8294 13.763 7.51879 13.0824 7.51879 11.6241V8.52189C7.51879 7.06358 6.8294 6.38304 5.39761 6.38304H2.25119C0.819399 6.38304 0.130016 7.06358 0.130016 8.52189V11.6241C0.130016 13.0824 0.819399 13.763 2.25119 13.763ZM2.14514 12.2251C1.81812 12.2251 1.67671 12.0749 1.67671 11.739V8.40699C1.67671 8.07998 1.81812 7.92973 2.14514 7.92973H5.50367C5.82184 7.92973 5.97209 8.07998 5.97209 8.40699V11.739C5.97209 12.0749 5.82184 12.2251 5.50367 12.2251H2.14514ZM10.7094 12.2251C10.3824 12.2251 10.241 12.0749 10.241 11.739V8.40699C10.241 8.07998 10.3824 7.92973 10.7094 7.92973H14.0679C14.3949 7.92973 14.5364 8.07998 14.5364 8.40699V11.739C14.5364 12.0749 14.3949 12.2251 14.0679 12.2251H10.7094ZM3.02012 11.0585H4.611C4.75242 11.0585 4.80545 10.9966 4.80545 10.8375V9.29966C4.80545 9.14941 4.75242 9.09638 4.611 9.09638H3.02012C2.88755 9.09638 2.84336 9.14941 2.84336 9.29966V10.8375C2.84336 10.9966 2.88755 11.0585 3.02012 11.0585ZM11.6197 11.0585H13.2018C13.3432 11.0585 13.3962 10.9966 13.3962 10.8375V9.29966C13.3962 9.14941 13.3432 9.09638 13.2018 9.09638H11.6197C11.4783 9.09638 11.4341 9.14941 11.4341 9.29966V10.8375C11.4341 10.9966 11.4783 11.0585 11.6197 11.0585ZM2.25119 22.3361H5.39761C6.8294 22.3361 7.51879 21.6555 7.51879 20.1884V17.0861C7.51879 15.6278 6.8294 14.9473 5.39761 14.9473H2.25119C0.819399 14.9473 0.130016 15.6278 0.130016 17.0861V20.1884C0.130016 21.6555 0.819399 22.3361 2.25119 22.3361ZM9.31295 17.2894H10.895C11.0364 17.2894 11.0983 17.2276 11.0983 17.0685V15.5306C11.0983 15.3804 11.0364 15.3185 10.895 15.3185H9.31295C9.18038 15.3185 9.12735 15.3804 9.12735 15.5306V17.0685C9.12735 17.2276 9.18038 17.2894 9.31295 17.2894ZM13.847 17.2894H15.429C15.5704 17.2894 15.6235 17.2276 15.6235 17.0685V15.5306C15.6235 15.3804 15.5704 15.3185 15.429 15.3185H13.847C13.7144 15.3185 13.6614 15.3804 13.6614 15.5306V17.0685C13.6614 17.2276 13.7144 17.2894 13.847 17.2894ZM2.14514 20.7894C1.81812 20.7894 1.67671 20.6391 1.67671 20.3121V16.9713C1.67671 16.6442 1.81812 16.494 2.14514 16.494H5.50367C5.82184 16.494 5.97209 16.6442 5.97209 16.9713V20.3121C5.97209 20.6391 5.82184 20.7894 5.50367 20.7894H2.14514ZM11.6021 19.552H13.1841C13.3255 19.552 13.3785 19.499 13.3785 19.3311V17.7932C13.3785 17.643 13.3255 17.5899 13.1841 17.5899H11.6021C11.4695 17.5899 11.4165 17.643 11.4165 17.7932V19.3311C11.4165 19.499 11.4695 19.552 11.6021 19.552ZM3.02012 19.6227H4.611C4.75242 19.6227 4.80545 19.5609 4.80545 19.4018V17.8639C4.80545 17.7137 4.75242 17.6606 4.611 17.6606H3.02012C2.88755 17.6606 2.84336 17.7137 2.84336 17.8639V19.4018C2.84336 19.5609 2.88755 19.6227 3.02012 19.6227ZM9.31295 21.8146H10.895C11.0364 21.8146 11.0983 21.7616 11.0983 21.6025V20.0646C11.0983 19.9144 11.0364 19.8525 10.895 19.8525H9.31295C9.18038 19.8525 9.12735 19.9144 9.12735 20.0646V21.6025C9.12735 21.7616 9.18038 21.8146 9.31295 21.8146ZM13.847 21.8146H15.429C15.5704 21.8146 15.6235 21.7616 15.6235 21.6025V20.0646C15.6235 19.9144 15.5704 19.8525 15.429 19.8525H13.847C13.7144 19.8525 13.6614 19.9144 13.6614 20.0646V21.6025C13.6614 21.7616 13.7144 21.8146 13.847 21.8146Z" fill="white"/>
<path d="M41.58 18.126C40.704 18.126 39.912 17.976 39.204 17.676C38.508 17.376 37.956 16.944 37.548 16.38C37.14 15.816 36.93 15.15 36.918 14.382H39.618C39.654 14.898 39.834 15.306 40.158 15.606C40.494 15.906 40.95 16.056 41.526 16.056C42.114 16.056 42.576 15.918 42.912 15.642C43.248 15.354 43.416 14.982 43.416 14.526C43.416 14.154 43.302 13.848 43.074 13.608C42.846 13.368 42.558 13.182 42.21 13.05C41.874 12.906 41.406 12.75 40.806 12.582C39.99 12.342 39.324 12.108 38.808 11.88C38.304 11.64 37.866 11.286 37.494 10.818C37.134 10.338 36.954 9.702 36.954 8.91C36.954 8.166 37.14 7.518 37.512 6.966C37.884 6.414 38.406 5.994 39.078 5.706C39.75 5.406 40.518 5.256 41.382 5.256C42.678 5.256 43.728 5.574 44.532 6.21C45.348 6.834 45.798 7.71 45.882 8.838H43.11C43.086 8.406 42.9 8.052 42.552 7.776C42.216 7.488 41.766 7.344 41.202 7.344C40.71 7.344 40.314 7.47 40.014 7.722C39.726 7.974 39.582 8.34 39.582 8.82C39.582 9.156 39.69 9.438 39.906 9.666C40.134 9.882 40.41 10.062 40.734 10.206C41.07 10.338 41.538 10.494 42.138 10.674C42.954 10.914 43.62 11.154 44.136 11.394C44.652 11.634 45.096 11.994 45.468 12.474C45.84 12.954 46.026 13.584 46.026 14.364C46.026 15.036 45.852 15.66 45.504 16.236C45.156 16.812 44.646 17.274 43.974 17.622C43.302 17.958 42.504 18.126 41.58 18.126ZM47.5627 12.996C47.5627 12 47.7668 11.118 48.1748 10.35C48.5948 9.57 49.1588 8.964 49.8668 8.532C50.5748 8.1 51.3548 7.884 52.2068 7.884C52.9148 7.884 53.5388 8.022 54.0788 8.298C54.6308 8.562 55.0748 8.904 55.4108 9.324V8.028H57.9488V22.752H55.4108V16.632C55.0748 17.064 54.6248 17.424 54.0608 17.712C53.4968 18 52.8608 18.144 52.1528 18.144C51.3128 18.144 50.5388 17.928 49.8308 17.496C49.1348 17.052 48.5828 16.44 48.1748 15.66C47.7668 14.88 47.5627 13.992 47.5627 12.996ZM55.4108 13.014C55.4108 12.402 55.2848 11.874 55.0328 11.43C54.7808 10.986 54.4508 10.65 54.0428 10.422C53.6468 10.194 53.2208 10.08 52.7648 10.08C52.3208 10.08 51.8948 10.194 51.4868 10.422C51.0908 10.65 50.7668 10.986 50.5148 11.43C50.2628 11.862 50.1368 12.384 50.1368 12.996C50.1368 13.608 50.2628 14.142 50.5148 14.598C50.7668 15.042 51.0908 15.378 51.4868 15.606C51.8948 15.834 52.3208 15.948 52.7648 15.948C53.2208 15.948 53.6468 15.834 54.0428 15.606C54.4508 15.378 54.7808 15.042 55.0328 14.598C55.2848 14.154 55.4108 13.626 55.4108 13.014ZM69.824 8.028V18H67.286V16.74C66.962 17.172 66.536 17.514 66.008 17.766C65.492 18.006 64.928 18.126 64.316 18.126C63.536 18.126 62.846 17.964 62.246 17.64C61.646 17.304 61.172 16.818 60.824 16.182C60.488 15.534 60.32 14.766 60.32 13.878V8.028H62.84V13.518C62.84 14.31 63.038 14.922 63.434 15.354C63.83 15.774 64.37 15.984 65.054 15.984C65.75 15.984 66.296 15.774 66.692 15.354C67.088 14.922 67.286 14.31 67.286 13.518V8.028H69.824ZM71.6624 12.978C71.6624 11.97 71.8604 11.076 72.2564 10.296C72.6644 9.516 73.2104 8.916 73.8944 8.496C74.5904 8.076 75.3644 7.866 76.2164 7.866C76.9604 7.866 77.6084 8.016 78.1604 8.316C78.7244 8.616 79.1744 8.994 79.5104 9.45V8.028H82.0484V18H79.5104V16.542C79.1864 17.01 78.7364 17.4 78.1604 17.712C77.5964 18.012 76.9424 18.162 76.1984 18.162C75.3584 18.162 74.5904 17.946 73.8944 17.514C73.2104 17.082 72.6644 16.476 72.2564 15.696C71.8604 14.904 71.6624 13.998 71.6624 12.978ZM79.5104 13.014C79.5104 12.402 79.3904 11.88 79.1504 11.448C78.9104 11.004 78.5864 10.668 78.1784 10.44C77.7704 10.2 77.3324 10.08 76.8644 10.08C76.3964 10.08 75.9644 10.194 75.5684 10.422C75.1724 10.65 74.8484 10.986 74.5964 11.43C74.3564 11.862 74.2364 12.378 74.2364 12.978C74.2364 13.578 74.3564 14.106 74.5964 14.562C74.8484 15.006 75.1724 15.348 75.5684 15.588C75.9764 15.828 76.4084 15.948 76.8644 15.948C77.3324 15.948 77.7704 15.834 78.1784 15.606C78.5864 15.366 78.9104 15.03 79.1504 14.598C79.3904 14.154 79.5104 13.626 79.5104 13.014ZM87.0296 9.576C87.3536 9.048 87.7736 8.634 88.2896 8.334C88.8176 8.034 89.4176 7.884 90.0896 7.884V10.53H89.4236C88.6316 10.53 88.0316 10.716 87.6236 11.088C87.2276 11.46 87.0296 12.108 87.0296 13.032V18H84.5096V8.028H87.0296V9.576ZM101.057 12.798C101.057 13.158 101.033 13.482 100.985 13.77H93.6949C93.7549 14.49 94.0069 15.054 94.4509 15.462C94.8949 15.87 95.4409 16.074 96.0889 16.074C97.0249 16.074 97.6909 15.672 98.0869 14.868H100.805C100.517 15.828 99.9649 16.62 99.1489 17.244C98.3329 17.856 97.3309 18.162 96.1429 18.162C95.1829 18.162 94.3189 17.952 93.5509 17.532C92.7949 17.1 92.2009 16.494 91.7689 15.714C91.3489 14.934 91.1389 14.034 91.1389 13.014C91.1389 11.982 91.3489 11.076 91.7689 10.296C92.1889 9.516 92.7769 8.916 93.5329 8.496C94.2889 8.076 95.1589 7.866 96.1429 7.866C97.0909 7.866 97.9369 8.07 98.6809 8.478C99.4369 8.886 100.019 9.468 100.427 10.224C100.847 10.968 101.057 11.826 101.057 12.798ZM98.4469 12.078C98.4349 11.43 98.2009 10.914 97.7449 10.53C97.2889 10.134 96.7309 9.936 96.0709 9.936C95.4469 9.936 94.9189 10.128 94.4869 10.512C94.0669 10.884 93.8089 11.406 93.7129 12.078H98.4469ZM102.248 12.978C102.248 11.97 102.446 11.076 102.842 10.296C103.25 9.516 103.802 8.916 104.498 8.496C105.194 8.076 105.968 7.866 106.82 7.866C107.468 7.866 108.086 8.01 108.674 8.298C109.262 8.574 109.73 8.946 110.078 9.414V4.68H112.634V18H110.078V16.524C109.766 17.016 109.328 17.412 108.764 17.712C108.2 18.012 107.546 18.162 106.802 18.162C105.962 18.162 105.194 17.946 104.498 17.514C103.802 17.082 103.25 16.476 102.842 15.696C102.446 14.904 102.248 13.998 102.248 12.978ZM110.096 13.014C110.096 12.402 109.976 11.88 109.736 11.448C109.496 11.004 109.172 10.668 108.764 10.44C108.356 10.2 107.918 10.08 107.45 10.08C106.982 10.08 106.55 10.194 106.154 10.422C105.758 10.65 105.434 10.986 105.182 11.43C104.942 11.862 104.822 12.378 104.822 12.978C104.822 13.578 104.942 14.106 105.182 14.562C105.434 15.006 105.758 15.348 106.154 15.588C106.562 15.828 106.994 15.948 107.45 15.948C107.918 15.948 108.356 15.834 108.764 15.606C109.172 15.366 109.496 15.03 109.736 14.598C109.976 14.154 110.096 13.626 110.096 13.014ZM128.794 5.436V18H126.274V9.828L122.908 18H121L117.616 9.828V18H115.096V5.436H117.958L121.954 14.778L125.95 5.436H128.794ZM140.555 12.798C140.555 13.158 140.531 13.482 140.483 13.77H133.193C133.253 14.49 133.505 15.054 133.949 15.462C134.393 15.87 134.939 16.074 135.587 16.074C136.523 16.074 137.189 15.672 137.585 14.868H140.303C140.015 15.828 139.463 16.62 138.647 17.244C137.831 17.856 136.829 18.162 135.641 18.162C134.681 18.162 133.817 17.952 133.049 17.532C132.293 17.1 131.699 16.494 131.267 15.714C130.847 14.934 130.637 14.034 130.637 13.014C130.637 11.982 130.847 11.076 131.267 10.296C131.687 9.516 132.275 8.916 133.031 8.496C133.787 8.076 134.657 7.866 135.641 7.866C136.589 7.866 137.435 8.07 138.179 8.478C138.935 8.886 139.517 9.468 139.925 10.224C140.345 10.968 140.555 11.826 140.555 12.798ZM137.945 12.078C137.933 11.43 137.699 10.914 137.243 10.53C136.787 10.134 136.229 9.936 135.569 9.936C134.945 9.936 134.417 10.128 133.985 10.512C133.565 10.884 133.307 11.406 133.211 12.078H137.945ZM147.92 7.884C149.108 7.884 150.068 8.262 150.8 9.018C151.532 9.762 151.898 10.806 151.898 12.15V18H149.378V12.492C149.378 11.7 149.18 11.094 148.784 10.674C148.388 10.242 147.848 10.026 147.164 10.026C146.468 10.026 145.916 10.242 145.508 10.674C145.112 11.094 144.914 11.7 144.914 12.492V18H142.394V8.028H144.914V9.27C145.25 8.838 145.676 8.502 146.192 8.262C146.72 8.01 147.296 7.884 147.92 7.884ZM163.709 8.028V18H161.171V16.74C160.847 17.172 160.421 17.514 159.893 17.766C159.377 18.006 158.813 18.126 158.201 18.126C157.421 18.126 156.731 17.964 156.131 17.64C155.531 17.304 155.057 16.818 154.709 16.182C154.373 15.534 154.205 14.766 154.205 13.878V8.028H156.725V13.518C156.725 14.31 156.923 14.922 157.319 15.354C157.715 15.774 158.255 15.984 158.939 15.984C159.635 15.984 160.181 15.774 160.577 15.354C160.973 14.922 161.171 14.31 161.171 13.518V8.028H163.709Z" fill="white"/>
</svg>
