<svg width="375" height="209" viewBox="0 0 375 209" fill="none" xmlns="http://www.w3.org/2000/svg">
<rect width="375" height="209" fill="#635CC9"/>
<path opacity="0.4" d="M168.43 125.18H205.766C210.805 125.18 213.523 122.438 213.523 117.445V90.5859C213.523 85.6172 210.805 82.875 205.766 82.875H168.43C163.391 82.875 160.648 85.5938 160.648 90.5859V117.445C160.648 122.438 163.391 125.18 168.43 125.18ZM166.25 91.2656C166.25 89.3672 167.211 88.4766 169.016 88.4766H205.156C206.961 88.4766 207.945 89.3672 207.945 91.2656V113.016L198.125 103.828C197.141 102.938 195.992 102.492 194.82 102.492C193.602 102.492 192.5 102.891 191.492 103.805L181.508 112.734L177.43 109.055C176.492 108.234 175.461 107.789 174.43 107.789C173.375 107.789 172.508 108.211 171.594 109.031L166.25 113.766V91.2656ZM178.906 104.742C181.883 104.742 184.344 102.281 184.344 99.2578C184.344 96.2812 181.883 93.7969 178.906 93.7969C175.906 93.7969 173.445 96.2812 173.445 99.2578C173.445 102.281 175.906 104.742 178.906 104.742Z" fill="black" fill-opacity="0.35"/>
</svg>
