<svg width="375" height="235" viewBox="0 0 375 235" fill="none" xmlns="http://www.w3.org/2000/svg">
<path d="M160 228.908C96 254.756 44.5 188.069 0 218.569V3H375V189.103C284 247.001 294.855 174.444 160 228.908Z" fill="#635CC9"/>
<path d="M214.092 -120.687C305.545 -167.611 415.652 -195.134 458.218 -112.175C500.784 -29.2166 463.427 77.3706 371.974 124.295C280.521 171.22 43.7751 90.964 1.20903 8.00528C-41.357 -74.9534 122.638 -73.7621 214.092 -120.687Z" fill="#726AE9"/>
<path d="M340.184 56C329.781 53.2126 316.392 36.0492 319.18 25.6466C321.967 15.244 346.281 27.0252 356.684 29.8126C367.086 32.5999 365.709 39.3879 362.921 49.7904C360.134 60.193 350.586 58.7874 340.184 56Z" fill="#635CC9"/>
</svg>
