<svg width="375" height="735" viewBox="0 0 375 735" fill="none" xmlns="http://www.w3.org/2000/svg">
<path opacity="0.1" d="M203 674.297C93.31 709.952 44.5 597.826 0 636.388V-7H375V734.116C339.875 745.889 322.501 635.453 203 674.297Z" fill="#635CC9"/>
<path opacity="0.3" d="M203 624.715C93.31 657.775 44.5 553.809 0 589.565V-7H375V680.181C339.875 691.096 322.501 588.698 203 624.715Z" fill="#635CC9"/>
<path opacity="0.7" d="M203 580.642C93.31 611.395 44.5 514.683 0 547.944V-7H375V632.238C339.875 642.392 322.501 547.137 203 580.642Z" fill="#635CC9"/>
<path d="M203 537.487C93.31 565.982 44.5 476.372 0 507.19V-7H375V585.294C339.875 594.702 322.501 506.443 203 537.487Z" fill="#635CC9"/>
<path d="M155.055 -18.2881C224.593 21.8596 288.241 84.2998 248 154C207.759 223.7 118.788 249.854 49.2498 209.706C-20.288 169.559 -60.5388 -32.5691 -20.2974 -102.269C19.944 -171.969 85.517 -58.4358 155.055 -18.2881Z" fill="#726AE9"/>
<path d="M167.184 111C156.781 108.213 143.392 91.0492 146.18 80.6466C148.967 70.244 173.281 82.0252 183.684 84.8126C194.086 87.5999 192.709 94.3879 189.921 104.79C187.134 115.193 177.586 113.787 167.184 111Z" fill="#635CC9"/>
</svg>

