<svg width="375" height="735" viewBox="0 0 375 735" fill="none" xmlns="http://www.w3.org/2000/svg">
<path opacity="0.1" d="M203 674.297C93.31 709.952 44.5 597.826 0 636.388V-7H375V734.116C339.875 745.889 322.501 635.453 203 674.297Z" fill="#635CC9"/>
<path opacity="0.3" d="M203 624.715C93.31 657.775 44.5 553.809 0 589.565V-7H375V680.181C339.875 691.096 322.501 588.698 203 624.715Z" fill="#635CC9"/>
<path opacity="0.7" d="M203 580.642C93.31 611.395 44.5 514.683 0 547.944V-7H375V632.238C339.875 642.392 322.501 547.137 203 580.642Z" fill="#635CC9"/>
<path d="M203 537.487C93.31 565.982 44.5 476.372 0 507.19V-7H375V585.294C339.875 594.702 322.501 506.443 203 537.487Z" fill="#635CC9"/>
</svg>
